<?xml version="1.0" encoding="utf-8"?>
<!DOCTYPE svg PUBLIC "-//W3C//DTD SVG 1.1//EN" "http://www.w3.org/Graphics/SVG/1.1/DTD/svg11.dtd">
<svg version="1.1" id="Layer_1" xmlns="http://www.w3.org/2000/svg" xmlns:xlink="http://www.w3.org/1999/xlink" x="0px" y="0px"
	 width="510px" height="242px" viewBox="0 0 510 242" enable-background="new 0 0 510 242" xml:space="preserve">
  <path fill="#ffffff" fill-opacity=".9" fill-rule="evenodd" clip-rule="evenodd" d="M394.969,127.847c-18.671,13.816-21.793,44.951-6.91,65.494 c14.498,20.014,39.954,27.383,62.298,18.029c21.403-8.957,35.369-32.281,31.858-53.213c-4.457-26.557-23.733-44.706-49.181-46.3
		c-13.724-0.859-16.349-3.036-21.638-18.508c10.987-4.343,22.525-3.638,33.446-1.739c33.688,5.855,59.764,37.406,60.152,71.365
		c0.411,36-27.804,68.484-63.682,73.311c-31.641,4.254-61.525-10.764-76.087-38.232c-14.754-27.83-10.481-60.328,11.065-84.173
		c6.151-6.809,5.952-8.06-2.93-15.192c-13.396,11.05-21.99,25.186-26.978,41.711c-4.96,16.428-4.055,32.723,0.409,49.145
		c1.047,3.844-0.106,8.277-0.247,12.441c-1.383,0.117-2.762,0.236-4.145,0.352c-2.188-7.801-5.346-15.479-6.396-23.428
		c-4.191-31.807,4.022-59.948,27.326-82.795c4.414-4.328,4.83-7.367,1.748-12.667c-5.848-10.056-11.083-20.509-15.772-31.147
		c-1.22-2.768,0.528-6.832,0.913-10.298c3.622,0.975,8.535,0.8,10.64,3.128c7.608,8.438,14.669,17.444,21.142,26.78
		c3.689,5.318,6.831,6.209,12.918,3.817c28.627-11.246,56.605-9.195,83.592,5.565c2.185,1.195,4.226,2.669,6.241,4.142
		c0.595,0.434,0.865,1.304,1.521,2.356c-5.189,4.146-9.771,1.833-14.47-0.58c-23.256-11.939-47.108-13.856-71.862-4.702
		c-6.65,2.456-8.234,5.124-4.167,11.386c6.95,10.696,13.652,21.592,19.708,32.806c3.471,6.426,7.961,7.801,14.831,7.469
		c12.889-0.627,23.743,6.875,28.117,18.139c4.749,12.232,1.532,25.613-8.191,34.084c-9.896,8.617-25.588,9.604-36.519,2.293
		c-11.629-7.775-16.425-22.211-11.69-35.178C406.721,140.669,406.337,139.202,394.969,127.847z M413.668,152.839
		c-7.008,8.457-6.395,17.479,0.84,25.375c7.655,8.355,19.511,9.586,28.657,2.971c9.169-6.633,11.792-18.299,6.3-28.004
		c-4.913-8.678-13.964-12.543-22.729-8.984c2.611,4.541,5.063,9.082,7.786,13.457c2.579,4.146,3.095,8.631-1.665,10.496
		c-2.556,1-7.37-0.719-9.696-2.818C419.413,161.944,416.882,157.228,413.668,152.839z"/>
  <path fill="#ffffff" fill-opacity=".9" fill-rule="evenodd" clip-rule="evenodd" d="M140.431,101.132c-13.796,6.169-25.8,11.216-40.252,10.589
		c-25.29-1.097-45.343,16.183-50.878,41.569c-4.896,22.461,8.221,46.877,29.945,56.621c6.823,3.061,11.761,2.797,14.396-4.822
		c3.691-10.666,11.12-13.109,21.979-12.625c20.583,0.914,41.247-0.115,61.851,0.523c5.34,0.164,10.576,3.531,15.867,5.41
		c2.507,0.889,5.028,2.475,7.548,2.488c32.048,0.158,64.101,0.213,96.15,0c10.286-0.068,17.666-6.115,20.283-15.465
		c2.247-8.031-1.265-16.658-7.952-22.066c-8.121-6.563-14.804-1.828-21.056,2.436c-15.897,10.838-31.456,10.867-47.306,0.209
		c-2.047-1.373-4.631-1.941-6.721-3.271c-5.042-3.209-6.225-11.143-1.337-14.195c11.932-7.455,23.96-15.893,39.402-11.416
		c4.723,1.369,9.227,3.568,13.712,5.641c6.249,2.887,12.181,6.568,18.612,8.926c14.061,5.146,23.284,18.607,21.229,32.061
		c-2.314,15.145-13.374,24.684-29.645,24.797c-30.098,0.211-60.201-0.16-90.294,0.316c-5.007,0.082-9.966,3.24-14.943,4.984
		c-2.299,0.807-4.53,1.998-6.895,2.363c-2.725,0.42-5.572,0.297-8.344,0.1c-14.089-0.998-26.273,1.803-39.065,9.631
	c-26.327,16.111-54.096,14.041-79.287-3.697c-24.061-16.941-34.73-41.309-30.216-70.24c4.834-30.986,23.749-51.674,54.101-60.24
		C101.31,86.115,120.965,89.054,140.431,101.132z M273.571,157.472c0.055-1.342,0.108-2.68,0.164-4.02
		c-3.146-2.287-6.532-6.635-9.375-6.305c-3.071,0.354-7.352,4.809-7.848,7.977c-0.366,2.334,4.299,7.426,7.111,7.732
		C266.706,163.192,270.235,159.44,273.571,157.472z"/>
  <path fill="#ffffff" fill-opacity=".9" fill-rule="evenodd" clip-rule="evenodd" d="M118.979,165.394c-4.49,1.42-8.901,3.512-13.498,4.059
		c-3.883,0.461-8.836,0.273-11.668-1.828c-1.741-1.293-1.796-8.609-0.102-9.863c2.872-2.117,7.808-2.359,11.726-1.957
		c4.771,0.492,9.385,2.465,14.869,4.025c-1.121-11.926-8.779-18.568-19.291-18.914c-11.021-0.361-20.961,7.768-22.333,18.377
		c-1.125,8.703,2.043,15.545,8.744,21.262c1.598,1.365,1.491,4.707,2.168,7.137c-2.4-0.391-5.4-0.008-7.098-1.307
		c-8.72-6.678-13.601-15.797-12.214-26.707c1.537-12.098,8.608-20.707,20.308-25.291c23.034-9.025,46.022-18.162,69.029-27.261
		c36.444-14.412,72.693-29.35,109.464-42.881c9.163-3.371,20.306-4.159,30.022-2.707c17.292,2.584,30.119,21.539,28.381,38.859
		c-0.774,7.697-1.963,15.358-3.181,23.002c-1.169,7.343-2.62,14.638-4.011,22.313c-5.966,0.506-7.024-2.904-6.361-7.639
		c1.304-9.309,2.693-18.605,4.065-27.904c0.201-1.368,0.571-2.713,0.742-4.084c2.307-18.678,0.091-21.218-18.469-21.218
		c-7.797,0.001-15.718,0.892-23.372-0.149c-34.074-4.633-63.758,8.784-93.626,21.677c-1.22,0.526-2.245,1.491-3.293,2.206
		c4.205,10.482,8.064,20.752,12.577,30.732c0.807,1.787,4.254,3.189,6.582,3.346c6.6,0.445,13.25,0.156,18.725,0.156
		c0.557,9.199,1.055,17.439,1.672,27.629c-10.17-1.027-21.597-1.506-32.737-3.543c-7.751-1.418-11.77-0.475-13.233,6.959
		c-1.1,5.58-3.506,8.195-9.528,7.502c-4.364-0.504-8.833-0.1-12.984-0.1c-0.538-0.969-0.967-1.412-1.022-1.896
		c-0.486-4.293,5.493-10.041-2.034-12.662c-8.806-3.066-17.203,0.104-19.764,7.145c-2.513,6.906-7.137,8.592-13.72,7.096
		c2.307-4.168,4.666-8.432,7.025-12.695C120.686,167.31,119.832,166.351,118.979,165.394z M114.232,133.931
		c4.765,5.582,10.618,9.572,12.128,14.805c3.227,11.166,10.847,10.617,19.396,10.164c5.429-0.287,7.169-3.225,5.207-7.633
		c-3.333-7.488-6.991-14.91-11.41-21.789c-1.216-1.893-5.929-2.969-8.491-2.313C125.526,128.587,120.345,131.374,114.232,133.931z
		 M161.105,115.993c4.527,13.482,8.408,26.041,13.162,38.266c0.852,2.191,5.21,3.66,8.147,4.07c0.974,0.137,4.106-4.508,3.625-6.25
		c-2.996-10.83-6.002-21.77-10.444-32.062C171.414,110.327,169.398,110.41,161.105,115.993z"/>
  <path fill="#ffffff" fill-opacity=".9" fill-rule="evenodd" clip-rule="evenodd" d="M5.958,173.147c-3.772-24.703,3.95-46.781,16.894-66.588
		c-2.438-4.157-5.441-7.302-6.154-10.896c-1.55-7.799,1.812-11.516,9.846-11.148c11.625,0.532,21.882-1.922,32.557-7.345
		c33.75-17.154,78.544-10.413,102.74,14.242c-3.437,4.994-7.06,3.425-11.001,0.611c-11.728-8.371-24.636-13.679-39.064-15.664
		c-44.57-6.137-87.097,23.085-96.542,66.847c-1.272,5.9-1.087,12.102-2.083,18.078c-0.723,4.344-2.278,8.549-3.463,12.814
		C8.444,173.782,7.201,173.464,5.958,173.147z"/>
  <path fill="#ffffff" fill-opacity=".9" fill-rule="evenodd" clip-rule="evenodd" d="M235.343,132.616c0-10.65,0.085-19.476-0.037-28.295
		c-0.059-4.375,1.519-6.765,6.243-6.752c19.731,0.06,39.466-0.096,59.192,0.222c1.853,0.03,5.34,2.982,5.219,4.327
		c-0.986,11.137-2.646,22.213-4.373,35.375C280.021,122.625,258.813,118.166,235.343,132.616z"/>
  <path fill="#eb2026" fill-rule="evenodd" clip-rule="evenodd" d="M174.712,53.984c11.686,0,23.374-0.176,35.053,0.059
		c8.138,0.162,9.385,2.914,4.914,9.742c-8.962,13.679-24.256,18.964-39.976,13.716c-12.83-4.28-25.691-8.479-38.367-13.176
		c-1.974-0.731-3.032-3.913-4.514-5.961c2.055-1.443,4.071-4.061,6.171-4.13c12.228-0.396,24.477-0.194,36.718-0.194
		C174.712,54.02,174.712,54,174.712,53.984z"/>
  <path fill="#ffffff" fill-opacity=".9" fill-rule="evenodd" clip-rule="evenodd" d="M355.331,24.044c1.689-2.074,4.075-7.571,8.172-9.521
		c8.872-4.229,18.519-7.026,28.089-9.476c1.918-0.495,6.958,3.033,7.071,4.913c0.734,12.254,1.304,24.629,0.264,36.826
		c-0.531,6.224-12.667,7.581-18.073,2.37c-2.58-2.485-4.293-5.858-6.88-8.337C368.402,35.486,362.52,30.473,355.331,24.044z"/>
  <path fill="#ffffff" fill-opacity=".9" fill-rule="evenodd" clip-rule="evenodd" d="M336.312,79.119c-9.112-18.976-23.001-29.938-42.636-31.149
		c-9.133-0.563-18.783,1.542-27.679,4.177c-11.355,3.358-22.185,8.474-34.158,13.195c13.525-15.71,51.105-32.669,70.854-32.496
		C327.352,33.061,342.846,53.377,336.312,79.119z"/>
</svg>
